<svg xmlns="http://www.w3.org/2000/svg" width="32" height="32" viewBox="0 0 32 32" fill="none">
  <path d="M23.0357 8.95361C22.9084 8.95366 22.7839 8.99169 22.6783 9.06285C22.5727 9.13401 22.4907 9.23505 22.4428 9.35306C22.395 9.47107 22.3834 9.60068 22.4096 9.72531C22.4358 9.84994 22.4985 9.96392 22.5899 10.0527L27.8972 15.36H11.0501H10.4101V16.6402H11.0501H27.8972L22.5899 21.9475C22.5292 22.0067 22.4809 22.0773 22.4477 22.1553C22.4145 22.2332 22.3972 22.317 22.3966 22.4018C22.3961 22.4865 22.4124 22.5705 22.4446 22.6489C22.4768 22.7273 22.5242 22.7985 22.5841 22.8584C22.644 22.9183 22.7152 22.9657 22.7936 22.9979C22.872 23.0301 22.956 23.0464 23.0407 23.0459C23.1255 23.0453 23.2093 23.028 23.2872 22.9948C23.3652 22.9616 23.4358 22.9133 23.495 22.8526L29.895 16.4527C30.015 16.3326 30.0824 16.1698 30.0824 16.0001C30.0824 15.8304 30.015 15.6676 29.895 15.5475L23.495 9.14757C23.4353 9.08616 23.3639 9.03736 23.285 9.00404C23.2061 8.97073 23.1214 8.95358 23.0357 8.95361ZM0 15.3577V16.6425H1.2788V15.3577H0ZM2.5576 15.3577V16.6425H3.83628V15.3577H2.5576ZM5.12118 15.3577V16.6425H6.39998V15.3577H5.12118ZM7.67878 15.3577V16.6425H8.95758V15.3577H7.67878Z" fill="white"/>
</svg>
