<svg width="16" height="16" viewBox="0 0 16 16" fill="none" xmlns="http://www.w3.org/2000/svg">
<path d="M2 2H3.5L4.5 10H13L14 4H5M4.5 10C4.5 10.5304 4.71071 11.0391 5.08579 11.4142C5.46086 11.7893 5.96957 12 6.5 12C7.03043 12 7.53914 11.7893 7.91421 11.4142C8.28929 11.0391 8.5 10.5304 8.5 10M4.5 10C4.5 9.46957 4.71071 8.96086 5.08579 8.58579C5.46086 8.21071 5.96957 8 6.5 8C7.03043 8 7.53914 8.21071 7.91421 8.58579C8.28929 8.96086 8.5 9.46957 8.5 10M8.5 10H13M13 10C13 10.5304 12.7893 11.0391 12.4142 11.4142C12.0391 11.7893 11.5304 12 11 12C10.4696 12 9.96086 11.7893 9.58579 11.4142C9.21071 11.0391 9 10.5304 9 10C9 9.46957 9.21071 8.96086 9.58579 8.58579C9.96086 8.21071 10.4696 8 11 8C11.5304 8 12.0391 8.21071 12.4142 8.58579C12.7893 8.96086 13 9.46957 13 10Z" stroke="currentColor" stroke-width="1.5" stroke-linecap="round" stroke-linejoin="round"/>
</svg>
