<svg xmlns="http://www.w3.org/2000/svg" width="32" height="32" viewBox="0 0 32 32" fill="none">
  <path d="M3.84006 2.56006C3.14006 2.56006 2.56006 3.14006 2.56006 3.84006V28.1601C2.56006 28.8601 3.14006 29.4401 3.84006 29.4401H28.1601C28.8601 29.4401 29.4401 28.8601 29.4401 28.1601V3.84006C29.4401 3.14006 28.8601 2.56006 28.1601 2.56006H3.84006ZM3.84006 3.84006H28.1601V28.1601H3.84006V3.84006ZM25.5876 5.75506C25.5626 5.75506 25.5401 5.75756 25.5176 5.76006H16.0001C15.7701 5.75756 15.5551 5.87756 15.4376 6.07756C15.3226 6.27756 15.3226 6.52256 15.4376 6.72256C15.5551 6.92256 15.7701 7.04256 16.0001 7.04006H24.0551L10.4276 20.6676C10.2601 20.8276 10.1926 21.0676 10.2526 21.2901C10.3101 21.5151 10.4851 21.6901 10.7101 21.7476C10.9326 21.8076 11.1726 21.7401 11.3326 21.5726L24.9601 7.94506V16.0001C24.9576 16.2301 25.0776 16.4451 25.2776 16.5626C25.4776 16.6776 25.7226 16.6776 25.9226 16.5626C26.1226 16.4451 26.2426 16.2301 26.2401 16.0001V6.48006C26.2651 6.29506 26.2076 6.10756 26.0826 5.96506C25.9576 5.82506 25.7751 5.74756 25.5876 5.75506Z" fill="white"/>
</svg>
